REM DIRINDEX 1\2,1\3,1\4
REM DIRNAME folder01,folder02,folder03,folder04
TITLE ""
FILE "Disk2Track71.mp3" MP3
  TRACK 01 AUDIO
    TITLE "4:cjc064_2034"
    INDEX 01 00:00:00
  TRACK 02 AUDIO
    TITLE "4:cjc064_2035"
    INDEX 01 00:03:12
  TRACK 03 AUDIO
    TITLE "4:cjc064_2036"
    INDEX 01 00:08:48
  TRACK 04 AUDIO
    TITLE "0:"
    INDEX 01 00:15:44
